<?xml version="1.0" encoding="utf-8"?>
<!-- Generator: Adobe Illustrator 22.1.0, SVG Export Plug-In . SVG Version: 6.00 Build 0)  -->
<svg version="1.1"
	 id="Layer_1" xmlns:cc="http://creativecommons.org/ns#" xmlns:dc="http://purl.org/dc/elements/1.1/" xmlns:inkscape="http://www.inkscape.org/namespaces/inkscape" xmlns:rdf="http://www.w3.org/1999/02/22-rdf-syntax-ns#" xmlns:sodipodi="http://sodipodi.sourceforge.net/DTD/sodipodi-0.dtd" xmlns:svg="http://www.w3.org/2000/svg"
	 xmlns="http://www.w3.org/2000/svg" xmlns:xlink="http://www.w3.org/1999/xlink" x="0px" y="0px" viewBox="0 0 100 90"
	 style="enable-background:new 0 0 100 90;" xml:space="preserve">
<g transform="translate(0,-952.36218)">
	<path d="M53.5,1031.3l-44,10c-1.2,0.3-2.5-0.7-2.5-1.9v-84c0-1.2,1.3-2.2,2.5-1.9l44,10c0.9,0.2,1.5,1.1,1.5,1.9v14
		c0,1.1-0.9,2-2,2c-1.1,0-2-1-2-2v-12.4l-40-9.1v79l40-9.1v-12.4c0-1.1,0.9-2,2-2c1.1,0,2,1,2,2v14C55,1030.4,54.3,1031,53.5,1031.3
		z"/>
	<path d="M93,997.4c0,0.5-0.3,1.1-0.6,1.4l-16,17c-0.7,0.8-2,0.9-2.8,0.1c-0.8-0.7-0.8-2.1-0.1-2.8l12.8-13.6H21c-1.1,0-2-0.9-2-2
		s0.9-2,2-2h65.4l-12.8-13.6c-0.7-0.8-0.7-2.1,0.1-2.8c0.8-0.8,2.1-0.7,2.8,0.1l16,17C92.9,996.4,93,996.9,93,997.4z"/>
</g>
</svg>
