<?xml version="1.0" encoding="utf-8"?>
<!-- Generator: Adobe Illustrator 22.1.0, SVG Export Plug-In . SVG Version: 6.00 Build 0)  -->
<svg version="1.1" id="Layer_1" xmlns="http://www.w3.org/2000/svg" xmlns:xlink="http://www.w3.org/1999/xlink" x="0px" y="0px"
	 viewBox="0 0 100 80.8" style="enable-background:new 0 0 100 80.8;" xml:space="preserve">
<g>
	<path d="M81.4,38V27.3h-8.6c-0.3-0.8-0.6-1.6-1-2.4l6.1-6.1L63.5,4.5l-6.1,6.1c-0.8-0.4-1.6-0.7-2.4-1V1H34.8v8.6
		c-0.8,0.3-1.6,0.6-2.4,1l-6.1-6.1L11.9,18.9L18,25c-0.4,0.8-0.7,1.6-1,2.4H8.4v20.4H17c0.3,0.8,0.6,1.6,1,2.4l-6.1,6.1l14.4,14.4
		l6.1-6.1c0.8,0.4,1.6,0.7,2.4,1V74h7.8v5h49V38H81.4z M88.6,45.4h-43V41h43V45.4z M63.5,38h-4.2c0-0.2,0-0.3,0-0.5
		c0-8-6.5-14.4-14.4-14.4s-14.4,6.5-14.4,14.4c0,7.1,5.2,13.1,12.1,14.2v4.2c-9.1-1.2-16.3-9-16.3-18.4c0-10.3,8.4-18.6,18.6-18.6
		s18.6,8.4,18.6,18.6C63.6,37.7,63.5,37.8,63.5,38z M42.6,38v10.7c-5.2-1.1-9.1-5.7-9.1-11.2c0-6.3,5.1-11.4,11.4-11.4
		s11.4,5.1,11.4,11.4c0,0.2,0,0.3,0,0.5H42.6z M37.8,71v-7.7l-1-0.3c-1.3-0.4-2.7-1-3.9-1.6l-1-0.5l-5.5,5.5L16.2,56.1l5.5-5.5
		l-0.5-1c-0.7-1.3-1.2-2.6-1.6-3.9l-0.3-1h-7.7V30.3h7.7l0.3-1c0.4-1.3,1-2.7,1.6-3.9l0.5-1l-5.5-5.5L26.3,8.7l5.5,5.5l1-0.5
		c1.3-0.7,2.6-1.2,3.9-1.6l1-0.3V4h14.4v7.7l1,0.3c1.3,0.4,2.7,1,3.9,1.6l1,0.5l5.5-5.5l10.2,10.2l-5.5,5.5l0.5,1
		c0.7,1.3,1.2,2.6,1.6,3.9l0.3,1h7.7V38H66.5c0-0.2,0-0.3,0-0.5c0-11.9-9.7-21.6-21.6-21.6s-21.6,9.7-21.6,21.6
		c0,11.1,8.4,20.3,19.3,21.5v12H37.8z M45.6,76V48.4h43V76H45.6z"/>
	<polygon points="53.5,57.6 51.2,55.3 49.1,57.4 51.4,59.7 53.5,61.8 55.6,59.7 62.3,53 60.2,50.9 	"/>
	<polygon points="53.5,68.7 51.2,66.4 49.1,68.5 51.4,70.8 53.5,73 55.6,70.8 62.3,64.1 60.2,62 	"/>
</g>
</svg>
