<?xml version="1.0" encoding="utf-8"?>
<!-- Generator: Adobe Illustrator 22.1.0, SVG Export Plug-In . SVG Version: 6.00 Build 0)  -->
<svg version="1.1" id="Layer_1" xmlns="http://www.w3.org/2000/svg" xmlns:xlink="http://www.w3.org/1999/xlink" x="0px" y="0px"
	 viewBox="0 0 64 64" style="enable-background:new 0 0 64 64;" xml:space="preserve">
<style type="text/css">
	.st0{display:none;}
	.st1{display:inline;}
	.st2{display:inline;fill:none;stroke:#DB2B42;stroke-miterlimit:10;}
	.st3{display:inline;fill:none;stroke:#8AD5DD;stroke-miterlimit:10;}
	.st4{display:inline;fill:none;stroke:#E0E0E0;stroke-miterlimit:10;}
	.st5{display:inline;stroke:#2D2D2D;stroke-miterlimit:10;}
	.st6{display:inline;fill:none;stroke:#999999;stroke-miterlimit:10;}
	.st7{display:inline;stroke:#999999;stroke-miterlimit:10;}
	.st8{fill:none;stroke:#DB2B42;stroke-miterlimit:10;}
	.st9{fill:none;stroke:#8AD5DD;stroke-miterlimit:10;}
	.st10{fill:none;stroke:#E0E0E0;stroke-miterlimit:10;}
	.st11{stroke:#2D2D2D;stroke-miterlimit:10;}
	.st12{display:inline;fill:none;stroke:#000000;stroke-width:1.4;stroke-miterlimit:10;}
	.st13{display:inline;fill:none;stroke:#000000;stroke-miterlimit:10;}
	.st14{display:inline;fill:none;stroke:#FFFFFF;stroke-width:1.4;stroke-miterlimit:10;}
</style>
<g class="st0">
	<rect x="-428.1" y="-250.1" class="st1" width="824.6" height="414.1"/>
</g>
<g class="st0">
	<circle class="st1" cx="32" cy="32" r="32"/>
	<polyline class="st1" points="50.7,51.2 50.7,11.1 16.7,11.1 16.7,56.4 45.5,56.4 45.5,56.4 50.7,51.2 	"/>
	<polygon class="st1" points="43.8,54.7 15,54.7 15,9.3 49,9.3 49,49.5 	"/>
	<line class="st2" x1="35.3" y1="26.7" x2="35.3" y2="29"/>
	<line class="st3" x1="37.3" y1="21.4" x2="37.3" y2="29"/>
	<line class="st2" x1="39.3" y1="17.6" x2="39.3" y2="29"/>
	<line class="st3" x1="41.3" y1="21.2" x2="41.3" y2="29"/>
	<line class="st2" x1="43.3" y1="24.9" x2="43.3" y2="29"/>
	<line class="st4" x1="29.1" y1="35.8" x2="43.9" y2="35.8"/>
	<line class="st4" x1="29.1" y1="38.3" x2="43.9" y2="38.3"/>
	<line class="st4" x1="29.1" y1="43.4" x2="43.9" y2="43.4"/>
	<line class="st4" x1="29.1" y1="45.9" x2="43.9" y2="45.9"/>
	<g class="st1">
		<path d="M25.4,18.1c3,0,5.5,2.5,5.5,5.5s-2.5,5.5-5.5,5.5s-5.5-2.5-5.5-5.5S22.3,18.1,25.4,18.1 M25.4,17.1
			c-3.6,0-6.5,2.9-6.5,6.5s2.9,6.5,6.5,6.5s6.5-2.9,6.5-6.5S28.9,17.1,25.4,17.1L25.4,17.1z"/>
	</g>
	<polyline class="st5" points="25.4,19.5 25.4,23.6 29.5,23.6 	"/>
	<polygon class="st1" points="43.8,54.7 43.8,49.5 49,49.5 	"/>
	<path class="st1" d="M22.2,40.2v-2h-3.1v-2h3.1v-2l4.6,3.1L22.2,40.2z"/>
	<path class="st1" d="M22.5,47.8v-2h-3.1v-2h3.1v-2l4.6,3.1L22.5,47.8z"/>
	<circle class="st1" cx="32" cy="32" r="32"/>
	<polyline class="st1" points="50.7,51.2 50.7,11.1 16.7,11.1 16.7,56.4 45.5,56.4 45.5,56.4 50.7,51.2 	"/>
	<polygon class="st1" points="43.8,54.7 15,54.7 15,9.3 49,9.3 49,49.5 	"/>
	<line class="st2" x1="35.3" y1="26.7" x2="35.3" y2="29"/>
	<line class="st3" x1="37.3" y1="21.4" x2="37.3" y2="29"/>
	<line class="st2" x1="39.3" y1="17.6" x2="39.3" y2="29"/>
	<line class="st3" x1="41.3" y1="21.2" x2="41.3" y2="29"/>
	<line class="st2" x1="43.3" y1="24.9" x2="43.3" y2="29"/>
	<line class="st4" x1="29.1" y1="35.8" x2="43.9" y2="35.8"/>
	<line class="st4" x1="29.1" y1="38.3" x2="43.9" y2="38.3"/>
	<line class="st4" x1="29.1" y1="43.4" x2="43.9" y2="43.4"/>
	<line class="st4" x1="29.1" y1="45.9" x2="43.9" y2="45.9"/>
	<g class="st1">
		<path d="M25.4,18.1c3,0,5.5,2.5,5.5,5.5s-2.5,5.5-5.5,5.5s-5.5-2.5-5.5-5.5S22.3,18.1,25.4,18.1 M25.4,17.1
			c-3.6,0-6.5,2.9-6.5,6.5s2.9,6.5,6.5,6.5s6.5-2.9,6.5-6.5S28.9,17.1,25.4,17.1L25.4,17.1z"/>
	</g>
	<polyline class="st5" points="25.4,19.5 25.4,23.6 29.5,23.6 	"/>
	<polygon class="st1" points="43.8,54.7 43.8,49.5 49,49.5 	"/>
	<path class="st1" d="M22.2,40.2v-2h-3.1v-2h3.1v-2l4.6,3.1L22.2,40.2z"/>
	<path class="st1" d="M22.5,47.8v-2h-3.1v-2h3.1v-2l4.6,3.1L22.5,47.8z"/>
</g>
<g class="st0">
	<circle class="st1" cx="32" cy="32" r="32"/>
	<polygon class="st1" points="43.8,54.7 15,54.7 15,9.3 49,9.3 49,49.5 	"/>
	<line class="st2" x1="35.3" y1="26.7" x2="35.3" y2="29"/>
	<line class="st6" x1="37.3" y1="21.4" x2="37.3" y2="29"/>
	<line class="st2" x1="39.3" y1="17.6" x2="39.3" y2="29"/>
	<line class="st6" x1="41.3" y1="21.2" x2="41.3" y2="29"/>
	<line class="st2" x1="43.3" y1="24.9" x2="43.3" y2="29"/>
	<line class="st6" x1="29.1" y1="35.8" x2="43.9" y2="35.8"/>
	<line class="st6" x1="29.1" y1="38.3" x2="43.9" y2="38.3"/>
	<line class="st6" x1="29.1" y1="43.4" x2="43.9" y2="43.4"/>
	<line class="st6" x1="29.1" y1="45.9" x2="43.9" y2="45.9"/>
	<g class="st1">
		<path d="M25.4,18.1c3,0,5.5,2.5,5.5,5.5s-2.5,5.5-5.5,5.5s-5.5-2.5-5.5-5.5S22.3,18.1,25.4,18.1 M25.4,17.1
			c-3.6,0-6.5,2.9-6.5,6.5s2.9,6.5,6.5,6.5s6.5-2.9,6.5-6.5S28.9,17.1,25.4,17.1L25.4,17.1z"/>
	</g>
	<polyline class="st7" points="25.4,19.5 25.4,23.6 29.5,23.6 	"/>
	<polygon class="st1" points="43.8,54.7 43.8,49.5 49,49.5 	"/>
	<path class="st1" d="M22.2,40.2v-2h-3.1v-2h3.1v-2l4.6,3.1L22.2,40.2z"/>
	<path class="st1" d="M22.5,47.8v-2h-3.1v-2h3.1v-2l4.6,3.1L22.5,47.8z"/>
</g>
<g class="st0">
	<g class="st1">
		<polygon points="48.7,64 8,64 8,0 56,0 56,56.7 		"/>
		<line class="st8" x1="36.7" y1="24.6" x2="36.7" y2="27.8"/>
		<line class="st9" x1="39.5" y1="17.1" x2="39.5" y2="27.8"/>
		<line class="st8" x1="42.3" y1="11.7" x2="42.3" y2="27.8"/>
		<line class="st9" x1="45.2" y1="16.8" x2="45.2" y2="27.8"/>
		<line class="st8" x1="48" y1="22" x2="48" y2="27.8"/>
		<line class="st10" x1="27.9" y1="37.4" x2="48.8" y2="37.4"/>
		<line class="st10" x1="27.9" y1="40.9" x2="48.8" y2="40.9"/>
		<line class="st10" x1="27.9" y1="48.1" x2="48.8" y2="48.1"/>
		<line class="st10" x1="27.9" y1="51.6" x2="48.8" y2="51.6"/>
		<g>
			<path d="M22.6,12.4c4.3,0,7.7,3.5,7.7,7.7s-3.5,7.7-7.7,7.7s-7.7-3.5-7.7-7.7S18.4,12.4,22.6,12.4 M22.6,11
				c-5.1,0-9.1,4.1-9.1,9.1s4.1,9.1,9.1,9.1s9.1-4.1,9.1-9.1S27.7,11,22.6,11L22.6,11z"/>
		</g>
		<polyline class="st11" points="22.6,14.3 22.6,20.1 28.4,20.1 		"/>
		<polygon points="48.7,64 48.7,56.7 56,56.7 		"/>
		<polygon points="48.7,64 8,64 8,0 56,0 56,56.7 		"/>
		<line class="st8" x1="36.7" y1="24.6" x2="36.7" y2="27.8"/>
		<line class="st9" x1="39.5" y1="17.1" x2="39.5" y2="27.8"/>
		<line class="st8" x1="42.3" y1="11.7" x2="42.3" y2="27.8"/>
		<line class="st9" x1="45.2" y1="16.8" x2="45.2" y2="27.8"/>
		<line class="st8" x1="48" y1="22" x2="48" y2="27.8"/>
		<line class="st10" x1="27.9" y1="37.4" x2="48.8" y2="37.4"/>
		<line class="st10" x1="27.9" y1="40.9" x2="48.8" y2="40.9"/>
		<line class="st10" x1="27.9" y1="48.1" x2="48.8" y2="48.1"/>
		<line class="st10" x1="27.9" y1="51.6" x2="48.8" y2="51.6"/>
		<g>
			<path d="M22.6,12.4c4.3,0,7.7,3.5,7.7,7.7s-3.5,7.7-7.7,7.7s-7.7-3.5-7.7-7.7S18.4,12.4,22.6,12.4 M22.6,11
				c-5.1,0-9.1,4.1-9.1,9.1s4.1,9.1,9.1,9.1s9.1-4.1,9.1-9.1S27.7,11,22.6,11L22.6,11z"/>
		</g>
		<polyline class="st11" points="22.6,14.3 22.6,20.1 28.4,20.1 		"/>
		<polygon points="48.7,64 48.7,56.7 56,56.7 		"/>
	</g>
</g>
<g>
	<path d="M56,56.7V0H8v64h40.7L56,56.7z M48.9,61.8v-4.9h4.9L48.9,61.8z M9.4,1.4h45.2v54.1h-7.1v7.1H9.4V1.4z"/>
	<rect x="36" y="24.6" width="1.4" height="3.2"/>
	<rect x="38.8" y="17.1" width="1.4" height="10.7"/>
	<rect x="41.6" y="11.7" width="1.4" height="16.1"/>
	<rect x="44.5" y="16.8" width="1.4" height="11"/>
	<rect x="47.3" y="22" width="1.4" height="5.8"/>
	<rect x="27.9" y="36.7" width="20.9" height="1.4"/>
	<rect x="27.9" y="40.2" width="20.9" height="1.4"/>
	<rect x="27.9" y="47.4" width="20.9" height="1.4"/>
	<rect x="27.9" y="50.9" width="20.9" height="1.4"/>
	<path d="M22.6,29.3c5.1,0,9.1-4.1,9.1-9.1S27.7,11,22.6,11s-9.1,4.1-9.1,9.1S17.6,29.3,22.6,29.3z M22.6,12.4
		c4.3,0,7.7,3.5,7.7,7.7s-3.5,7.7-7.7,7.7s-7.7-3.5-7.7-7.7S18.4,12.4,22.6,12.4z"/>
	<polygon points="28.4,19.6 23.1,19.6 23.1,14.3 22.1,14.3 22.1,20.6 28.4,20.6 	"/>
	<polygon points="19.1,37.9 14.8,37.9 14.8,40.7 19.1,40.7 19.1,43.6 25.6,39.3 19.1,35 	"/>
	<polygon points="19.1,48.5 14.8,48.5 14.8,51.4 19.1,51.4 19.1,54.2 25.6,49.9 19.1,45.6 	"/>
</g>
<g class="st0">
	<circle class="st1" cx="32" cy="32" r="32"/>
	<polygon class="st1" points="8.8,0.8 55.5,0.8 55.5,56.1 47.5,63.5 8.8,63.5 	"/>
	<polygon class="st1" points="48.3,56.2 48.4,60.6 11.4,60.6 11.4,3.4 52.6,3.4 52.6,56.2 	"/>
	<path class="st1" d="M54.6,1.4v54.7l-6.5,6.5H9.4V1.4H54.6 M56,0H8v64h40.7l7.3-7.3V0L56,0z"/>
	<circle class="st1" cx="24" cy="20.1" r="8.4"/>
	<line class="st12" x1="36.7" y1="24.6" x2="36.7" y2="27.8"/>
	<line class="st12" x1="39.5" y1="17.1" x2="39.5" y2="27.8"/>
	<line class="st12" x1="42.3" y1="11.7" x2="42.3" y2="27.8"/>
	<line class="st12" x1="45.2" y1="16.8" x2="45.2" y2="27.8"/>
	<line class="st12" x1="48" y1="22" x2="48" y2="27.8"/>
	<line class="st12" x1="27.9" y1="37.4" x2="48.8" y2="37.4"/>
	<line class="st12" x1="27.9" y1="40.9" x2="48.8" y2="40.9"/>
	<line class="st12" x1="27.9" y1="48.1" x2="48.8" y2="48.1"/>
	<line class="st12" x1="27.9" y1="51.6" x2="48.8" y2="51.6"/>
	<g class="st1">
		<path d="M24,12.4c4.3,0,7.7,3.5,7.7,7.7s-3.5,7.7-7.7,7.7s-7.7-3.5-7.7-7.7S19.7,12.4,24,12.4 M24,11c-5.1,0-9.1,4.1-9.1,9.1
			s4.1,9.1,9.1,9.1s9.1-4.1,9.1-9.1S29,11,24,11L24,11z"/>
	</g>
	<polyline class="st13" points="24,14.3 24,20.1 29.8,20.1 	"/>
	<line class="st12" x1="36.7" y1="24.6" x2="36.7" y2="27.8"/>
	<line class="st14" x1="39.5" y1="17.1" x2="39.5" y2="27.8"/>
	<line class="st12" x1="42.3" y1="11.7" x2="42.3" y2="27.8"/>
	<line class="st14" x1="45.2" y1="16.8" x2="45.2" y2="27.8"/>
	<line class="st12" x1="48" y1="22" x2="48" y2="27.8"/>
	<line class="st12" x1="27.9" y1="37.4" x2="48.8" y2="37.4"/>
	<line class="st12" x1="27.9" y1="40.9" x2="48.8" y2="40.9"/>
	<line class="st12" x1="27.9" y1="48.1" x2="48.8" y2="48.1"/>
	<line class="st12" x1="27.9" y1="51.6" x2="48.8" y2="51.6"/>
	<g class="st1">
		<path d="M24,12.4c4.3,0,7.7,3.5,7.7,7.7s-3.5,7.7-7.7,7.7s-7.7-3.5-7.7-7.7S19.7,12.4,24,12.4 M24,11c-5.1,0-9.1,4.1-9.1,9.1
			s4.1,9.1,9.1,9.1s9.1-4.1,9.1-9.1S29,11,24,11L24,11z"/>
	</g>
	<polyline class="st13" points="24,14.3 24,20.1 29.8,20.1 	"/>
	<path class="st1" d="M19.2,43.6v-2.9h-4.4v-2.9h4.4V35l6.4,4.3L19.2,43.6z"/>
	<path class="st1" d="M19.2,54.2v-2.9h-4.4v-2.9h4.4v-2.9l6.4,4.3L19.2,54.2z"/>
</g>
</svg>
